# xmcd
# 
# Track frame offsets:
#     150
#     21021
#     44710
#     75280
#     103051
#     113946
#     127141
#     148190
#     168091
#     180725
#     194232
#     207782
#     223547
# 
# Disc length: 4202
# 
# Revision: 2
# Processed by: cddbd v1.5.2PL0 Copyright (c) Steve Scherf et al.
# Submitted via: fre:ac v1.0.31
# 
DISCID=c110680d
DTITLE=Donny Hathaway - Never My Love The Anthology Disc 2
DYEAR=2013
DGENRE=R&B
TTITLE0=Never My Love
TTITLE1=A Lot Of Soul
TTITLE2=Let's Groove
TTITLE3=Latin Time
TTITLE4=Tally Rand
TTITLE5=Memory Of Our Love
TTITLE6=Sunshine Over Showers
TTITLE7=After The Dance Is Done
TTITLE8=Don't Turn Away
TTITLE9=Always The Same
TTITLE10=Brown Eyed Lady (Instrumental)
TTITLE11=The Sands Of Time And Changes
TTITLE12=Zyxygy Concerto
EXTD=
EXTT0=
EXTT1=
EXTT2=
EXTT3=
EXTT4=
EXTT5=
EXTT6=
EXTT7=
EXTT8=
EXTT9=
EXTT10=
EXTT11=
EXTT12=
PLAYORDER=
